<!-- icon666.com - MILLIONS vector ICONS FREE --><svg id="Layer_1" enable-background="new 0 0 512 512" viewBox="0 0 512 512" xmlns="http://www.w3.org/2000/svg"><g><path d="m263.9 343.4c-.3-5.9-1.1-13.9-2.4-24.1-1.4-10.2-3.3-22.2-5.8-36-1.3-7.2-2.7-15-4.3-23.4-1.6-8.5-3.1-17-4.5-25.6s-2.7-17.1-3.8-25.4-1.9-16-2.2-23c0-.8.4-2.7 1.1-5.7s1.6-6.1 2.5-9.4c1-3.3 2.6-7.5 4.8-12.7 1.3 4.8 2.3 10.7 2.9 17.8 1.7 17.2 3.6 33 5.9 47.6 2.2 14.5 4.2 27.7 6.1 39.6.8 5.1 1.6 10.6 2.4 16.6s1.6 12 2.2 18.1c.7 6.1 1.2 11.9 1.7 17.5s.7 10.6.7 15c0 2-.2 4.3-.5 6.9-.3 2.7-.7 5.3-1.2 7.8s-1 4.7-1.8 6.4c-.7 1.8-1.5 2.6-2.2 2.6s-1.2-.9-1.4-2.6c-.1-1.8-.2-3.5-.2-5.2z" fill="#000000" style="fill: rgb(153, 153, 153);"></path></g></svg>